<?xml version="1.0" standalone="no"?>
<!DOCTYPE svg PUBLIC "-//W3C//DTD SVG 20010904//EN"
 "http://www.w3.org/TR/2001/REC-SVG-20010904/DTD/svg10.dtd">
<svg version="1.0" xmlns="http://www.w3.org/2000/svg"
 width="200.000000pt" height="200.000000pt" viewBox="0 0 200.000000 200.000000"
 preserveAspectRatio="xMidYMid meet">
<metadata>
Created by potrace 1.14, written by Peter Selinger 2001-2017
</metadata>
<g transform="translate(0.000000,200.000000) scale(0.100000,-0.100000)"
fill="#000000" stroke="none">
<path d="M183 1979 c-65 -25 -128 -86 -159 -154 l-24 -53 2 -783 3 -784 23
-43 c30 -57 80 -104 139 -134 l48 -23 720 -3 c396 -2 739 0 763 3 83 12 149
103 137 189 -9 56 -31 88 -122 177 -43 42 -98 97 -122 122 l-44 45 43 22 c140
72 272 212 340 364 102 226 82 510 -50 715 -107 165 -241 267 -435 332 -70 23
-72 23 -640 26 -550 2 -572 2 -622 -18z m1227 -123 c110 -36 192 -87 275 -170
127 -128 188 -273 188 -446 0 -129 -12 -179 -71 -300 -49 -100 -166 -220 -270
-274 -41 -21 -75 -36 -78 -34 -2 1 -205 204 -452 451 l-449 447 -148 0 c-128
0 -154 3 -189 20 -85 41 -122 150 -80 232 20 38 64 77 99 88 17 5 268 8 575 6
495 -2 550 -3 600 -20z m-1235 -421 c33 -16 67 -20 184 -23 l144 -4 597 -596
c328 -328 602 -606 608 -618 8 -15 8 -27 -1 -45 l-13 -24 -730 0 -730 0 -37
25 c-21 14 -47 45 -59 69 -21 43 -21 51 -20 620 0 661 0 624 10 619 4 -2 25
-13 47 -23z"/>
<path d="M240 1050 c-24 -24 -20 -68 7 -87 12 -10 73 -13 218 -13 183 0 203 2
218 18 22 24 21 65 -1 85 -16 15 -47 17 -220 17 -189 0 -203 -1 -222 -20z"/>
<path d="M247 818 c-28 -22 -32 -63 -8 -87 20 -20 30 -21 334 -21 291 0 315 1
330 18 22 24 21 65 -1 85 -16 15 -54 17 -328 17 -233 0 -314 -3 -327 -12z"/>
<path d="M240 570 c-11 -11 -20 -29 -20 -40 0 -11 9 -29 20 -40 19 -19 33 -20
453 -20 408 0 435 1 450 18 22 24 21 65 -1 85 -17 15 -63 17 -450 17 -419 0
-433 -1 -452 -20z"/>
</g>
</svg>
